<svg height="512" viewBox="0 0 59 48" width="512" xmlns="http://www.w3.org/2000/svg"><g id="015---Worm" fill="none" transform="translate(0 -1)"><path id="Shape" d="m34 36.5c.0034688 3.5244559 1.49348 6.8839418 4.1036061 9.2522838s6.0981886 3.5257954 9.6063939 3.1877162c6.491398-.7431738 11.368303-6.2766682 11.29-12.81v-2.13c.0053948-1.1320283-.4691332-2.2133317-1.3059128-2.9757732s-1.9574409-1.1346137-3.0840872-1.0242268c-2.0934905.2607341-3.6517768 2.0607491-3.61 4.17v2.33c-.0009378 1.2808529-.5464526 2.5008915-1.5003983 3.3556269s-2.2263307 1.2635349-3.4996017 1.1243731c-2.3252905-.3234304-4.0426242-2.3327109-4-4.68v-23.3c.0014751-3.38355206-1.4255494-6.61049035-3.9296062-8.88604004s-5.8524146-3.38821738-9.2203938-3.06395996c-6.2373666.70786566-10.9259681 6.02305454-10.85 12.3v24.65c.0001839.9009681-.4045675 1.7543152-1.1023962 2.3242087-.6978288.5698935-1.6148389.7959849-2.4976038.6157913-1.4257578-.3263502-2.4274064-1.6076256-2.4-3.07v-9.63c0-3.94 2-4.54 2-8.48v-5.76c-.0223358-3.127837-2.443821-5.71376374-5.56345349-5.94126418-3.11963245-.22750044-5.89066274 1.97976008-6.36654651 5.07126418l-.07 6.63c0 3.94 2 4.54 2 8.48v9.76c-.01419852 3.1087617 1.28771597 6.0783708 3.58372161 8.1743095 2.29600564 2.0959388 5.37168279 3.1224715 8.46627839 2.8256905 5.7368095-.6481664 10.0431516-5.5474421 9.95-11.32v-24.68c-.0053948-1.1320283.4691332-2.2133317 1.3059128-2.9757732s1.9574409-1.13461366 3.0840872-1.0242268c2.0934905.26073412 3.6517768 2.0607491 3.61 4.17z" fill="#fb7b76"/><path id="Shape" d="m8.5 13.32v5.36c-2.37 4.57-8.5 2.57-8.5-2.68s6.12-7.26 8.5-2.68z" fill="#fb7b76"/><path id="Shape" d="m7.5 14v4.1c-1.81 3.45-6.5 1.9-6.5-2.1s4.68-5.55 6.5-2z" fill="#fff"/><path id="Shape" d="m7.5 14v4.1c-.13731761.2652742-.30511885.5136201-.5.74-1.3341397-1.6207623-1.3341397-3.9592377 0-5.58.19488115.2263799.36268239.4747258.5.74z" fill="#ecf0f1"/><path id="Shape" d="m6 16c0 1.1045695-.8954305 2-2 2s-2-.8954305-2-2 .8954305-2 2-2c.53043298 0 1.03914081.2107137 1.41421356.5857864.37507276.3750728.58578644.8837806.58578644 1.4142136z" fill="#35495e"/><rect id="Rectangle-path" fill="#ff5364" height="12" rx="2" width="10" x="33" y="19"/><ellipse id="Oval" cx="10.5" cy="16" fill="#fff" rx="3.5" ry="4"/><path id="Shape" d="m12 16c0 1.1045695-.8954305 2-2 2s-2-.8954305-2-2 .8954305-2 2-2 2 .8954305 2 2z" fill="#35495e"/><g fill="#fff"><path id="Shape" d="m4 14c0 .5522847-.44771525 1-1 1s-1-.4477153-1-1 .44771525-1 1-1 1 .4477153 1 1z"/><path id="Shape" d="m10 14c0 .5522847-.44771525 1-1 1s-1-.4477153-1-1 .44771525-1 1-1 1 .4477153 1 1z"/></g></g></svg>